<?xml version="1.0" encoding="UTF-8" standalone="no"?>
<!-- Created with Inkscape (http://www.inkscape.org/) -->

<svg
   xmlns:dc="http://purl.org/dc/elements/1.1/"
   xmlns:cc="http://creativecommons.org/ns#"
   xmlns:rdf="http://www.w3.org/1999/02/22-rdf-syntax-ns#"
   xmlns:svg="http://www.w3.org/2000/svg"
   xmlns="http://www.w3.org/2000/svg"
   xmlns:sodipodi="http://sodipodi.sourceforge.net/DTD/sodipodi-0.dtd"
   xmlns:inkscape="http://www.inkscape.org/namespaces/inkscape"
   id="svg3004"
   version="1.1"
   inkscape:version="0.48.3.1 r9886"
   width="115"
   height="101.37"
   xml:space="preserve"
   sodipodi:docname="makani_logo.pdf"><metadata
     id="metadata3010"><rdf:RDF><cc:Work
         rdf:about=""><dc:format>image/svg+xml</dc:format><dc:type
           rdf:resource="http://purl.org/dc/dcmitype/StillImage" /><dc:title></dc:title></cc:Work></rdf:RDF></metadata><defs
     id="defs3008"><clipPath
       clipPathUnits="userSpaceOnUse"
       id="clipPath3018"><path
         d="m 0,81.094 377.25,0 L 377.25,0 0,0 0,81.094 z"
         id="path3020"
         inkscape:connector-curvature="0" /></clipPath></defs><sodipodi:namedview
     pagecolor="#ffffff"
     bordercolor="#666666"
     borderopacity="1"
     objecttolerance="10"
     gridtolerance="10"
     guidetolerance="10"
     inkscape:pageopacity="0"
     inkscape:pageshadow="2"
     inkscape:window-width="640"
     inkscape:window-height="480"
     id="namedview3006"
     showgrid="false"
     inkscape:zoom="0.73797217"
     inkscape:cx="235.78125"
     inkscape:cy="50.683563"
     inkscape:window-x="0"
     inkscape:window-y="24"
     inkscape:window-maximized="0"
     inkscape:current-layer="g3014" /><g
     id="g3012"
     inkscape:groupmode="layer"
     inkscape:label="makani_logo"
     transform="matrix(1.25,0,0,-1.25,0,101.36999)"><g
       id="g3014"><g
         transform="translate(50.0903,63.5386)"
         id="g3022"><path
           inkscape:connector-curvature="0"
           id="path3024"
           style="fill:#6fc3ee;fill-opacity:1;fill-rule:nonzero;stroke:none"
           d="m 0,0 c -0.444,2.241 -1.474,4.544 -2.913,6.366 -0.273,0.314 -0.137,0.685 -0.046,0.82 4.031,5.676 10.658,9.376 18.143,9.376 12.297,0 22.247,-9.953 22.252,-22.248 -0.005,-12.286 -9.961,-22.245 -22.246,-22.245 l -64.34,0 0,7.028 64.334,0.004 c 8.414,0.008 15.208,6.814 15.232,15.213 C 30.392,2.729 23.598,9.518 15.19,9.543 8.788,9.529 3.29,5.415 1.063,-0.025 0.574,-0.661 0.091,-0.288 0,0" /></g><g
         transform="translate(33.5732,75.5825)"
         id="g3026"><path
           inkscape:connector-curvature="0"
           id="path3028"
           style="fill:#6fc3ee;fill-opacity:1;fill-rule:nonzero;stroke:none"
           d="m 0,0 c -7.982,0 -14.489,-6.311 -14.819,-14.215 -0.028,-0.35 0.113,-0.62 0.449,-0.624 l 6.216,0 c 0.308,0.03 0.356,0.286 0.361,0.43 0.231,4.117 3.62,7.364 7.793,7.379 4.168,-0.015 7.562,-3.263 7.781,-7.379 0.014,-0.144 0.025,-0.28 0.025,-0.43 0,-0.648 -0.086,-1.284 -0.244,-1.899 C 6.711,-20.121 3.656,-22.636 0,-22.636 l -25.429,0 0,-7.034 25.429,0 c 8.191,0 14.837,6.643 14.837,14.831 l 0,0.037 c -0.023,3.64 -1.333,6.965 -3.511,9.531 C 8.612,-2.055 4.54,0 0,0" /></g><g
         transform="translate(49.9727,32.3125)"
         id="g3030"><path
           inkscape:connector-curvature="0"
           id="path3032"
           style="fill:#6fc3ee;fill-opacity:1;fill-rule:nonzero;stroke:none"
           d="m 0,0 -34.899,0 0,-7.033 34.907,0.017 c 3.064,-0.017 5.548,-2.496 5.553,-5.568 -0.005,-3.076 -2.489,-5.551 -5.553,-5.562 -2.909,0.011 -5.293,2.236 -5.548,5.082 -0.02,0.286 -0.122,0.494 -0.515,0.48 -0.286,0.014 -5.823,0.005 -6.111,0 -0.272,-0.004 -0.334,-0.092 -0.407,-0.365 0.22,-6.836 5.749,-12.219 12.573,-12.219 6.957,0 12.596,5.632 12.596,12.584 C 12.596,-5.631 6.957,0 0,0" /></g></g></g></svg>